<svg width="28" height="25" viewBox="0 0 28 25" fill="none" xmlns="http://www.w3.org/2000/svg">
<g clip-path="url(#clip0_32_88)">
<path d="M14.0039 0.270508C6.73113 0.270508 0.836914 4.92969 0.836914 10.6804C0.836914 14.4219 3.33529 17.7025 7.08285 19.5379C6.80794 20.5647 6.08633 23.2632 5.94079 23.8393C5.76291 24.5549 6.20154 24.5468 6.49262 24.3547C6.71901 24.2031 10.1007 21.9029 11.5601 20.9104C12.3525 21.0276 13.1691 21.0903 14.0039 21.0903C21.2767 21.0903 27.1709 16.4311 27.1709 10.6804C27.1709 4.92969 21.2767 0.270508 14.0039 0.270508ZM22.1701 13.7346L20.3832 11.2969L19.9749 11.6244C19.9749 11.6244 19.9749 12.8291 19.9749 13.4638C19.9749 14.0095 18.5843 14.0116 18.5843 13.4638C18.5843 13.1181 18.6146 8.44277 18.6004 7.92733C18.5923 7.64233 18.9582 7.49477 19.316 7.49477C19.6495 7.49477 19.977 7.62413 19.983 7.88893C20.0012 8.59033 19.983 9.85771 19.983 9.85771C19.983 9.85771 22.0003 7.83839 22.2873 7.55339C22.5845 7.25827 23.5002 8.18202 23.205 8.47714C22.6977 8.98247 21.4101 10.3752 21.4101 10.3752L23.3081 12.8735C23.6679 13.3506 22.5319 14.2117 22.1701 13.7346ZM12.114 7.89701C12.3545 8.41043 13.6704 12.0286 14.0524 13.0332C14.3192 13.7367 13.0316 14.2238 12.7648 13.5204C12.4353 12.6512 12.5202 12.6128 12.5202 12.6128H10.0401L9.7692 13.5608C9.48015 14.2258 8.23299 13.6841 8.52204 13.0191C8.92226 12.0994 10.127 8.63076 10.4605 7.89701C10.5919 7.60594 10.9032 7.49072 11.2205 7.49072C11.6046 7.49072 12.0028 7.66052 12.114 7.89701ZM8.93843 7.4887C9.78133 7.4887 9.77931 8.8147 8.93843 8.8147C8.04298 8.8147 7.5902 8.81066 7.5902 8.81066L7.58414 13.3607C7.58414 13.9934 6.17729 13.9853 6.17527 13.3506C6.18335 12.4834 6.17527 8.76012 6.17527 8.76012H4.82097C4.02658 8.76012 4.02456 7.46243 4.82097 7.4604C4.82097 7.4604 7.99447 7.48668 8.94248 7.48668L8.93843 7.4887ZM14.5335 13.0919C14.5335 13.0919 14.5295 9.29376 14.5274 8.1133C14.5274 7.69892 14.8933 7.49072 15.2612 7.49072C15.6291 7.49072 15.9929 7.6969 15.9949 8.10925C15.9949 8.96226 15.9909 12.4774 15.9909 12.4774C15.9909 12.4774 17.1532 12.4834 17.7899 12.4834C18.4266 12.4834 18.4306 13.8377 17.7939 13.8377C17.1572 13.8377 15.72 13.8438 15.0732 13.8438C14.4264 13.8438 14.5355 13.0878 14.5355 13.0878L14.5335 13.0919Z" fill="#371D1E"/>
<path d="M12.0589 11.3678L11.305 9.00488L10.4863 11.3678H12.0589Z" fill="#371D1E"/>
</g>
<defs>
<clipPath id="clip0_32_88">
<rect width="26.334" height="24.1934" fill="white" transform="translate(0.836914 0.270508)"/>
</clipPath>
</defs>
</svg>
