<svg width="166" height="31" viewBox="0 0 166 31" fill="none" xmlns="http://www.w3.org/2000/svg">
<path d="M4.26083 2.33489H11.633L14.6586 14.6928H14.9142L22.0307 2.33489H29.4029L25.7807 24.1531H19.9853L22.0733 11.5394H21.9029L14.9995 23.9826H11.5051L8.73526 11.4542H8.56481L6.43413 24.1531H0.638672L4.26083 2.33489Z" fill="#7A22C3"/>
<path d="M28.6731 24.1531L31.4004 7.78944H37.2811L34.5538 24.1531H28.6731ZM34.5964 6.08489C33.801 6.08489 33.1582 5.82211 32.6681 5.29654C32.1781 4.76387 31.997 4.13177 32.1248 3.40023C32.2527 2.6545 32.6433 2.02239 33.2967 1.50393C33.9501 0.97836 34.6745 0.715576 35.47 0.715576C36.2726 0.715576 36.9118 0.97836 37.3876 1.50393C37.8635 2.02239 38.041 2.6545 37.9203 3.40023C37.8066 4.13177 37.4231 4.76387 36.7697 5.29654C36.1234 5.82211 35.399 6.08489 34.5964 6.08489Z" fill="#7A22C3"/>
<path d="M43.4414 24.1531L47.0636 2.33489H62.4045L61.5948 7.10762H52.1772L51.5806 10.8576H60.0607L59.2511 15.6303H50.771L49.3647 24.1531H43.4414Z" fill="#7A22C3"/>
<path d="M71.8248 16.994L73.3588 7.78944H79.2395L76.5123 24.1531H70.9299L71.4412 21.0423H71.2708C70.7665 22.0863 70.0137 22.9031 69.0123 23.4926C68.0179 24.075 66.91 24.3661 65.6884 24.3661C64.5449 24.3661 63.5897 24.1034 62.8226 23.5778C62.0556 23.0522 61.5123 22.3278 61.1926 21.4045C60.873 20.4812 60.8091 19.423 61.0009 18.2298L62.748 7.78944H68.6287L67.0946 16.994C66.9739 17.8036 67.0769 18.4393 67.4036 18.9009C67.7374 19.3626 68.2736 19.5934 69.0123 19.5934C69.5023 19.5934 69.9426 19.4904 70.3333 19.2845C70.731 19.0714 71.0577 18.7731 71.3134 18.3896C71.5762 17.999 71.7466 17.5338 71.8248 16.994Z" fill="#7A22C3"/>
<path d="M86.9606 14.9485L85.4265 24.1531H79.5458L82.2731 7.78944H87.8555L87.3441 10.9002H87.5146C88.033 9.8562 88.7894 9.04299 89.7837 8.4606C90.7852 7.87112 91.8896 7.57637 93.0969 7.57637C94.2546 7.57637 95.217 7.83916 95.984 8.36472C96.7511 8.89029 97.2944 9.61472 97.614 10.538C97.9336 11.4613 97.9904 12.5196 97.7844 13.7127L96.0373 24.1531H90.1566L91.6907 14.9485C91.8256 14.1389 91.7262 13.5032 91.3924 13.0416C91.0657 12.5799 90.5259 12.3491 89.7731 12.3491C89.2972 12.3491 88.8604 12.4556 88.4627 12.6687C88.0721 12.8747 87.7454 13.173 87.4826 13.5636C87.2269 13.9471 87.0529 14.4088 86.9606 14.9485Z" fill="#7A22C3"/>
<path d="M104.8 24.3661C103.635 24.3661 102.612 24.0607 101.732 23.45C100.858 22.8392 100.229 21.9123 99.8459 20.6694C99.4695 19.4265 99.4375 17.8605 99.75 15.9713C100.077 13.9968 100.648 12.3917 101.465 11.1559C102.289 9.92012 103.234 9.01458 104.299 8.4393C105.371 7.86401 106.447 7.57637 107.527 7.57637C108.337 7.57637 109.022 7.71842 109.583 8.00251C110.151 8.2795 110.602 8.65236 110.936 9.12111C111.27 9.58276 111.497 10.0906 111.618 10.6446H111.703L113.088 2.33489H118.969L115.347 24.1531H109.509L109.956 21.4684H109.828C109.509 22.0224 109.1 22.5196 108.603 22.9599C108.113 23.3931 107.548 23.7376 106.909 23.9933C106.27 24.2419 105.567 24.3661 104.8 24.3661ZM107.719 19.8491C108.259 19.8491 108.749 19.6928 109.189 19.3803C109.629 19.0607 110.002 18.6133 110.308 18.038C110.613 17.4556 110.83 16.7667 110.957 15.9713C111.092 15.1616 111.103 14.4691 110.989 13.8938C110.876 13.3115 110.648 12.8676 110.308 12.5622C109.974 12.2497 109.537 12.0934 108.997 12.0934C108.457 12.0934 107.971 12.2497 107.538 12.5622C107.104 12.8676 106.739 13.3115 106.44 13.8938C106.149 14.4691 105.936 15.1616 105.801 15.9713C105.666 16.7809 105.648 17.4769 105.748 18.0593C105.854 18.6346 106.075 19.0785 106.408 19.391C106.742 19.6964 107.179 19.8491 107.719 19.8491Z" fill="#7A22C3"/>
<path d="M118.234 24.1531L120.961 7.78944H126.842L124.114 24.1531H118.234ZM124.157 6.08489C123.362 6.08489 122.719 5.82211 122.229 5.29654C121.739 4.76387 121.558 4.13177 121.685 3.40023C121.813 2.6545 122.204 2.02239 122.857 1.50393C123.511 0.97836 124.235 0.715576 125.031 0.715576C125.833 0.715576 126.472 0.97836 126.948 1.50393C127.424 2.02239 127.602 2.6545 127.481 3.40023C127.367 4.13177 126.984 4.76387 126.33 5.29654C125.684 5.82211 124.96 6.08489 124.157 6.08489Z" fill="#7A22C3"/>
<path d="M134.568 14.9485L133.034 24.1531H127.153L129.881 7.78944H135.463L134.952 10.9002H135.122C135.64 9.8562 136.397 9.04299 137.391 8.4606C138.393 7.87112 139.497 7.57637 140.704 7.57637C141.862 7.57637 142.824 7.83916 143.591 8.36472C144.358 8.89029 144.902 9.61472 145.221 10.538C145.541 11.4613 145.598 12.5196 145.392 13.7127L143.645 24.1531H137.764L139.298 14.9485C139.433 14.1389 139.334 13.5032 139 13.0416C138.673 12.5799 138.133 12.3491 137.381 12.3491C136.905 12.3491 136.468 12.4556 136.07 12.6687C135.68 12.8747 135.353 13.173 135.09 13.5636C134.834 13.9471 134.66 14.4088 134.568 14.9485Z" fill="#7A22C3"/>
<path d="M153.366 30.6303C151.718 30.6303 150.347 30.396 149.254 29.9272C148.167 29.4656 147.365 28.8264 146.846 28.0096C146.335 27.2 146.122 26.2696 146.207 25.2184H151.874C151.889 25.5735 151.992 25.8576 152.183 26.0707C152.375 26.2838 152.642 26.4365 152.982 26.5288C153.323 26.6211 153.721 26.6673 154.176 26.6673C154.943 26.6673 155.607 26.4791 156.168 26.1026C156.729 25.7333 157.073 25.0693 157.201 24.1105L157.67 21.3406H157.499C157.201 21.8946 156.8 22.3669 156.296 22.7575C155.791 23.141 155.213 23.4357 154.559 23.6417C153.906 23.8406 153.21 23.94 152.471 23.94C151.306 23.94 150.28 23.6701 149.392 23.1303C148.512 22.5906 147.872 21.7348 147.475 20.5629C147.084 19.391 147.045 17.8605 147.357 15.9713C147.684 13.9968 148.259 12.3917 149.083 11.1559C149.907 9.92012 150.855 9.01458 151.928 8.4393C153 7.86401 154.076 7.57637 155.156 7.57637C155.965 7.57637 156.651 7.71842 157.212 8.00251C157.773 8.2795 158.22 8.65236 158.554 9.12111C158.888 9.58276 159.119 10.0906 159.247 10.6446H159.374L159.843 7.78944H165.724L162.997 24.1105C162.784 25.5025 162.24 26.6815 161.367 27.6474C160.5 28.6204 159.378 29.359 158 29.8633C156.629 30.3747 155.085 30.6303 153.366 30.6303ZM155.326 19.7639C155.866 19.7639 156.356 19.6147 156.796 19.3164C157.237 19.011 157.61 18.5778 157.915 18.0167C158.22 17.4485 158.437 16.7667 158.565 15.9713C158.693 15.1616 158.7 14.4691 158.586 13.8938C158.472 13.3115 158.249 12.8676 157.915 12.5622C157.581 12.2497 157.144 12.0934 156.605 12.0934C156.065 12.0934 155.578 12.2497 155.145 12.5622C154.712 12.8676 154.346 13.3115 154.048 13.8938C153.749 14.4691 153.536 15.1616 153.409 15.9713C153.281 16.7809 153.27 17.4698 153.377 18.038C153.483 18.5991 153.7 19.0288 154.026 19.3271C154.353 19.6183 154.786 19.7639 155.326 19.7639Z" fill="#7A22C3"/>
</svg>
