<svg width="14" height="14" viewBox="0 0 14 14" fill="none" xmlns="http://www.w3.org/2000/svg">
<path d="M12.1054 0.451701C12.4036 0.133767 12.8529 0.0380552 13.2435 0.209272C13.6342 0.380488 13.889 0.784843 13.889 1.23347C13.889 1.53242 13.7758 1.81171 13.5847 2.01546L13.5937 2.02503L8.88459 7.02917L13.4807 11.9002C13.5216 11.9321 13.5608 11.9675 13.598 12.0065C13.8975 12.323 13.9876 12.8 13.8264 13.2146C13.6651 13.6293 13.2842 13.8998 12.8615 13.8998C12.5804 13.8998 12.3177 13.78 12.1258 13.5778L12.1148 13.5895L7.4079 8.59837L2.70693 13.5938L2.69333 13.5794C2.59874 13.6783 2.48561 13.759 2.35807 13.8149C1.96591 13.9868 1.51482 13.8907 1.21547 13.5716C0.808385 13.1376 0.808385 12.4359 1.21547 12.0019C1.27389 11.9396 1.33809 11.8858 1.40651 11.8408L5.93129 7.03259L1.21642 2.03301L1.2304 2.0181C1.13794 1.91804 1.06251 1.79854 1.01013 1.6639C0.848201 1.24764 0.9387 0.768801 1.23936 0.451047C1.64823 0.0189313 2.30924 0.0189313 2.71811 0.451047C2.77733 0.513627 2.82839 0.582454 2.87097 0.655821L7.40758 5.46381L12.0005 0.583152C12.0318 0.537221 12.0667 0.493249 12.1054 0.451701Z" fill="#B6B6B6"/>
</svg>
