<svg width="26" height="26" viewBox="0 0 26 26" fill="none" xmlns="http://www.w3.org/2000/svg">
<circle cx="13.0806" cy="13.1927" r="12.2056" fill="#FF6868"/>
<path d="M16.7961 8.00145C17.032 7.74993 17.3875 7.67421 17.6965 7.80966C18.0055 7.94512 18.2071 8.265 18.2071 8.61991C18.2071 8.85642 18.1176 9.07737 17.9664 9.23856L17.9735 9.24613L14.2481 13.2049L17.8841 17.0584C17.9165 17.0837 17.9475 17.1117 17.9769 17.1425C18.2138 17.3929 18.2852 17.7703 18.1576 18.0983C18.03 18.4264 17.7286 18.6404 17.3943 18.6404C17.1719 18.6404 16.964 18.5456 16.8123 18.3856L16.8035 18.3949L13.0799 14.4464L9.3609 18.3983L9.35014 18.3869C9.27531 18.4652 9.18581 18.529 9.08491 18.5732C8.77467 18.7092 8.4178 18.6332 8.18099 18.3807C7.85894 18.0374 7.85894 17.4822 8.18099 17.1389C8.22721 17.0896 8.278 17.0471 8.33212 17.0115L11.9117 13.2077L8.18174 9.25244L8.1928 9.24065C8.11966 9.16148 8.05998 9.06695 8.01854 8.96044C7.89044 8.63113 7.96203 8.25231 8.19989 8.00094C8.52335 7.65908 9.04628 7.65908 9.36974 8.00094C9.41659 8.05044 9.45698 8.10489 9.49067 8.16293L13.0796 11.9666L16.7131 8.10545C16.7379 8.06911 16.7655 8.03432 16.7961 8.00145Z" fill="white"/>
<circle cx="13.0806" cy="13.1927" r="12.2056" fill="#FF6868"/>
<path d="M16.7961 8.00145C17.032 7.74993 17.3875 7.67421 17.6965 7.80966C18.0055 7.94512 18.2071 8.265 18.2071 8.61991C18.2071 8.85642 18.1176 9.07737 17.9664 9.23856L17.9735 9.24613L14.2481 13.2049L17.8841 17.0584C17.9165 17.0837 17.9475 17.1117 17.9769 17.1425C18.2138 17.3929 18.2852 17.7703 18.1576 18.0983C18.03 18.4264 17.7286 18.6404 17.3943 18.6404C17.1719 18.6404 16.964 18.5456 16.8123 18.3856L16.8035 18.3949L13.0799 14.4464L9.3609 18.3983L9.35014 18.3869C9.27531 18.4652 9.18581 18.529 9.08491 18.5732C8.77467 18.7092 8.4178 18.6332 8.18099 18.3807C7.85894 18.0374 7.85894 17.4822 8.18099 17.1389C8.22721 17.0896 8.278 17.0471 8.33212 17.0115L11.9117 13.2077L8.18174 9.25244L8.1928 9.24065C8.11966 9.16148 8.05998 9.06695 8.01854 8.96044C7.89044 8.63113 7.96203 8.25231 8.19989 8.00094C8.52335 7.65908 9.04628 7.65908 9.36974 8.00094C9.41659 8.05044 9.45698 8.10489 9.49067 8.16293L13.0796 11.9666L16.7131 8.10545C16.7379 8.06911 16.7655 8.03432 16.7961 8.00145Z" fill="white"/>
</svg>
