<svg width="66" height="66" viewBox="0 0 66 66" fill="none" xmlns="http://www.w3.org/2000/svg">
<rect x="0.474609" y="0.0090332" width="65.334" height="65.334" rx="10" fill="#7A22C3"/>
<path d="M8.3054 21.8578H15.6776L18.7031 34.2158H18.9588L26.0753 21.8578H33.4474L29.8253 43.676H24.0298L26.1179 31.0624H25.9474L19.044 43.5056H15.5497L12.7798 30.9772H12.6094L10.4787 43.676H4.68324L8.3054 21.8578ZM32.6325 43.676L36.2546 21.8578H51.5955L50.7859 26.6306H41.3683L40.7717 30.3806H49.2518L48.4421 35.1533H39.962L38.5558 43.676H32.6325ZM60.6349 21.8578L57.6094 36.8578H52.794L54.7116 21.8578H60.6349ZM54.2429 44.0169C53.4119 44.0169 52.7337 43.7293 52.2081 43.154C51.6896 42.5716 51.473 41.8649 51.5582 41.034C51.6435 40.2243 52.0092 39.5318 52.6555 38.9566C53.3089 38.3813 54.0511 38.0936 54.8821 38.0936C55.6705 38.0936 56.3274 38.3813 56.853 38.9566C57.3857 39.5318 57.6094 40.2243 57.5241 41.034C57.4673 41.588 57.272 42.0922 56.9382 42.5468C56.6115 42.9942 56.2067 43.3529 55.7237 43.6228C55.2479 43.8855 54.7543 44.0169 54.2429 44.0169Z" fill="white"/>
</svg>
