<svg width="221" height="41" viewBox="0 0 221 41" fill="none" xmlns="http://www.w3.org/2000/svg">
<path d="M4.88636 2.64371H14.7159L18.75 19.121H19.0909L28.5795 2.64371H38.4091L33.5795 31.7346H25.8523L28.6364 14.9164H28.4091L19.2045 31.5073H14.5455L10.8523 14.8028H10.625L7.78409 31.7346H0.0568182L4.88636 2.64371ZM37.4361 31.7346L41.0724 9.91644H48.9134L45.277 31.7346H37.4361ZM45.3338 7.64371C44.2732 7.64371 43.4162 7.29333 42.7628 6.59257C42.1094 5.88235 41.8679 5.03954 42.0384 4.06416C42.2088 3.06985 42.7296 2.22704 43.6009 1.53575C44.4721 0.834997 45.438 0.484619 46.4986 0.484619C47.5687 0.484619 48.4209 0.834997 49.0554 1.53575C49.6899 2.22704 49.9266 3.06985 49.7656 4.06416C49.6141 5.03954 49.1027 5.88235 48.2315 6.59257C47.3698 7.29333 46.4039 7.64371 45.3338 7.64371ZM57.1271 31.7346L61.9567 2.64371H82.4112L81.3317 9.00735H68.7749L67.9794 14.0073H79.2862L78.2067 20.371H66.8999L65.0249 31.7346H57.1271ZM94.9716 22.1892L97.017 9.91644H104.858L101.222 31.7346H93.7784L94.4602 27.5869H94.233C93.5606 28.9789 92.5568 30.068 91.2216 30.8539C89.8958 31.6305 88.4186 32.0187 86.7898 32.0187C85.2652 32.0187 83.9915 31.6683 82.9688 30.9676C81.946 30.2668 81.2216 29.3009 80.7955 28.0698C80.3693 26.8388 80.2841 25.4278 80.5398 23.8369L82.8693 9.91644H90.7102L88.6648 22.1892C88.5038 23.2687 88.6411 24.1162 89.0767 24.7318C89.5218 25.3473 90.2367 25.6551 91.2216 25.6551C91.875 25.6551 92.4621 25.5178 92.983 25.2431C93.5133 24.9591 93.9489 24.5613 94.2898 24.05C94.6402 23.5291 94.8674 22.9089 94.9716 22.1892ZM115.153 19.4619L113.107 31.7346H105.266L108.903 9.91644H116.346L115.664 14.0642H115.891C116.583 12.6721 117.591 11.5878 118.917 10.8113C120.252 10.0253 121.725 9.63235 123.335 9.63235C124.878 9.63235 126.161 9.98272 127.184 10.6835C128.207 11.3842 128.931 12.3501 129.357 13.5812C129.783 14.8123 129.859 16.2233 129.585 17.8142L127.255 31.7346H119.414L121.46 19.4619C121.639 18.3823 121.507 17.5348 121.062 16.9193C120.626 16.3037 119.906 15.996 118.903 15.996C118.268 15.996 117.686 16.138 117.156 16.4221C116.635 16.6967 116.199 17.0945 115.849 17.6153C115.508 18.1267 115.276 18.7422 115.153 19.4619ZM138.938 32.0187C137.385 32.0187 136.022 31.6115 134.847 30.7971C133.683 29.9827 132.844 28.7469 132.333 27.0897C131.831 25.4325 131.789 23.3445 132.205 20.8255C132.641 18.193 133.403 16.0528 134.492 14.4051C135.591 12.7573 136.85 11.55 138.271 10.7829C139.701 10.0159 141.135 9.63235 142.575 9.63235C143.654 9.63235 144.568 9.82174 145.316 10.2005C146.074 10.5698 146.675 11.067 147.12 11.692C147.565 12.3075 147.868 12.9846 148.029 13.7233H148.143L149.989 2.64371H157.83L153.001 31.7346H145.217L145.813 28.1551H145.643C145.217 28.8937 144.672 29.5566 144.009 30.1437C143.356 30.7214 142.603 31.1806 141.751 31.5216C140.898 31.853 139.961 32.0187 138.938 32.0187ZM142.83 25.996C143.55 25.996 144.203 25.7876 144.79 25.371C145.378 24.9448 145.875 24.3483 146.282 23.5812C146.689 22.8047 146.978 21.8861 147.148 20.8255C147.328 19.746 147.343 18.8227 147.191 18.0556C147.04 17.2791 146.737 16.6873 146.282 16.2801C145.837 15.8634 145.254 15.6551 144.535 15.6551C143.815 15.6551 143.166 15.8634 142.589 16.2801C142.011 16.6873 141.523 17.2791 141.126 18.0556C140.737 18.8227 140.453 19.746 140.273 20.8255C140.094 21.9051 140.07 22.8331 140.202 23.6096C140.344 24.3767 140.638 24.9685 141.083 25.3852C141.528 25.7924 142.111 25.996 142.83 25.996ZM156.85 31.7346L160.487 9.91644H168.327L164.691 31.7346H156.85ZM164.748 7.64371C163.687 7.64371 162.83 7.29333 162.177 6.59257C161.523 5.88235 161.282 5.03954 161.452 4.06416C161.623 3.06985 162.144 2.22704 163.015 1.53575C163.886 0.834997 164.852 0.484619 165.913 0.484619C166.983 0.484619 167.835 0.834997 168.469 1.53575C169.104 2.22704 169.341 3.06985 169.18 4.06416C169.028 5.03954 168.517 5.88235 167.646 6.59257C166.784 7.29333 165.818 7.64371 164.748 7.64371ZM178.629 19.4619L176.584 31.7346H168.743L172.379 9.91644H179.822L179.141 14.0642H179.368C180.059 12.6721 181.068 11.5878 182.393 10.8113C183.729 10.0253 185.201 9.63235 186.811 9.63235C188.355 9.63235 189.638 9.98272 190.661 10.6835C191.683 11.3842 192.408 12.3501 192.834 13.5812C193.26 14.8123 193.336 16.2233 193.061 17.8142L190.732 31.7346H182.891L184.936 19.4619C185.116 18.3823 184.983 17.5348 184.538 16.9193C184.103 16.3037 183.383 15.996 182.379 15.996C181.745 15.996 181.162 16.138 180.632 16.4221C180.111 16.6967 179.676 17.0945 179.325 17.6153C178.984 18.1267 178.752 18.7422 178.629 19.4619ZM203.693 40.371C201.496 40.371 199.669 40.0585 198.21 39.4335C196.761 38.818 195.691 37.9657 195 36.8767C194.318 35.7971 194.034 34.5566 194.148 33.1551H201.705C201.723 33.6286 201.861 34.0073 202.116 34.2914C202.372 34.5755 202.727 34.7791 203.182 34.9022C203.636 35.0253 204.167 35.0869 204.773 35.0869C205.795 35.0869 206.681 34.8359 207.429 34.3341C208.177 33.8416 208.636 32.9562 208.807 31.6778L209.432 27.9846H209.205C208.807 28.7233 208.272 29.353 207.599 29.8738C206.927 30.3852 206.155 30.7782 205.284 31.0528C204.413 31.318 203.485 31.4505 202.5 31.4505C200.947 31.4505 199.579 31.0907 198.395 30.371C197.221 29.6513 196.368 28.5102 195.838 26.9477C195.317 25.3852 195.265 23.3445 195.682 20.8255C196.117 18.193 196.884 16.0528 197.983 14.4051C199.081 12.7573 200.346 11.55 201.776 10.7829C203.205 10.0159 204.64 9.63235 206.08 9.63235C207.159 9.63235 208.073 9.82174 208.821 10.2005C209.569 10.5698 210.166 11.067 210.611 11.692C211.056 12.3075 211.364 12.9846 211.534 13.7233H211.705L212.33 9.91644H220.17L216.534 31.6778C216.25 33.5339 215.526 35.1058 214.361 36.3937C213.205 37.6911 211.709 38.6759 209.872 39.3483C208.045 40.0301 205.985 40.371 203.693 40.371ZM206.307 25.8823C207.027 25.8823 207.68 25.6835 208.267 25.2858C208.854 24.8786 209.351 24.3009 209.759 23.5528C210.166 22.7952 210.455 21.8861 210.625 20.8255C210.795 19.746 210.805 18.8227 210.653 18.0556C210.502 17.2791 210.204 16.6873 209.759 16.2801C209.313 15.8634 208.731 15.6551 208.011 15.6551C207.292 15.6551 206.643 15.8634 206.065 16.2801C205.488 16.6873 205 17.2791 204.602 18.0556C204.205 18.8227 203.92 19.746 203.75 20.8255C203.58 21.9051 203.565 22.8236 203.707 23.5812C203.849 24.3293 204.138 24.9022 204.574 25.3C205.009 25.6882 205.587 25.8823 206.307 25.8823Z" fill="#7A22C3"/>
</svg>
